<svg aria-hidden="true" style="width:0;height:0;position:absolute;overflow:hidden" xmlns="http://www.w3.org/2000/svg"><defs><symbol id="icon-arrow-left-single" viewBox="0 0 32 32"><path stroke-width="2.667" stroke-linecap="round" stroke-linejoin="round" d="M25.333 16H6.666M16 25.333 6.667 16 16 6.667"/></symbol><symbol id="icon-arrow-right-single" viewBox="0 0 32 32"><path stroke-width="2.667" stroke-linecap="round" stroke-linejoin="round" d="M6.667 16h18.667M16 25.333 25.333 16 16 6.667"/></symbol><symbol id="icon-close-window" viewBox="0 0 32 32"><path stroke-width="2.133" d="m8.533 8.533 14.933 14.933M8.533 23.467 23.466 8.534"/></symbol><symbol id="icon-film-from-header" viewBox="0 0 32 32"><path fill="none" stroke="#fff" stroke-width="2.667" stroke-linecap="round" stroke-linejoin="round" style="stroke:var(--color1,#fff)" d="M26.427 3.606H5.574c-1.605 0-2.907 1.239-2.907 2.768V26.23c0 1.529 1.301 2.768 2.907 2.768h20.853c1.605 0 2.907-1.239 2.907-2.768V6.374c0-1.529-1.301-2.768-2.907-2.768zM9.333 3.606v25.391M22.667 3.606v25.391M2.667 16.301h26.667M2.667 9.954h6.667M2.667 22.649h6.667M22.667 22.649h6.667M22.667 9.954h6.667"/></symbol><symbol id="icon-Group-heart" viewBox="0 0 34 32"><path fill="#ff6b08" style="fill:var(--color2,#ff6b08)" d="m17.231 31.705-2.412-2.412C5.859 21.367.001 16.025.001 9.478.001 4.136 4.136.001 9.478.001c2.929 0 5.858 1.378 7.754 3.618 1.895-2.24 4.825-3.618 7.754-3.618 5.342 0 9.477 4.135 9.477 9.477 0 6.548-5.858 11.889-14.818 19.815l-2.412 2.412z"/></symbol><symbol id="icon-Vector-heart-single" viewBox="0 0 34 32"><path fill="#ff6b08" style="fill:var(--color2,#ff6b08)" d="m17.231 31.705-2.412-2.412C5.859 21.367.001 16.025.001 9.478.001 4.136 4.136.001 9.478.001c2.929 0 5.858 1.378 7.754 3.618 1.895-2.24 4.825-3.618 7.754-3.618 5.342 0 9.477 4.135 9.477 9.477 0 6.548-5.858 11.889-14.818 19.815l-2.412 2.412z"/></symbol></defs></svg>