<svg aria-hidden="true" style="width:0;height:0;position:absolute;overflow:hidden" xmlns="http://www.w3.org/2000/svg"><defs><symbol id="icon-right" viewBox="0 0 32 32"><path d="m19.414 27.414 10-10a2 2 0 0 0 0-2.828l-10-10a2 2 0 1 0-2.828 2.828L23.172 14H4a2 2 0 1 0 0 4h19.172l-6.586 6.586c-.39.39-.586.902-.586 1.414s.195 1.024.586 1.414a2 2 0 0 0 2.828 0z"/></symbol><symbol id="icon-left" viewBox="0 0 32 32"><path d="m12.586 27.414-10-10a2 2 0 0 1 0-2.828l10-10a2 2 0 1 1 2.828 2.828L8.828 14H28a2 2 0 1 1 0 4H8.828l6.586 6.586c.39.39.586.902.586 1.414s-.195 1.024-.586 1.414a2 2 0 0 1-2.828 0z"/></symbol><symbol id="icon-close-window" viewBox="0 0 32 32"><path stroke-width="2.133" d="m8.533 8.533 14.933 14.933M8.533 23.467 23.466 8.534"/></symbol><symbol id="icon-close-window-orange" viewBox="0 0 32 32"><path stroke="#e5641f" stroke-width="2.133" d="m8.533 8.533 14.933 14.933M8.533 23.467 23.466 8.534"/></symbol><symbol id="icon-film-from-header" viewBox="0 0 32 32"><path fill="none" stroke="#fff" stroke-width="2.667" stroke-linecap="round" stroke-linejoin="round" style="stroke:var(--color1,#fff)" d="M26.427 3.606H5.574c-1.605 0-2.907 1.239-2.907 2.768V26.23c0 1.529 1.301 2.768 2.907 2.768h20.853c1.605 0 2.907-1.239 2.907-2.768V6.374c0-1.529-1.301-2.768-2.907-2.768zM9.333 3.606v25.391M22.667 3.606v25.391M2.667 16.301h26.667M2.667 9.954h6.667M2.667 22.649h6.667M22.667 22.649h6.667M22.667 9.954h6.667"/></symbol><symbol id="icon-Group-heart" viewBox="0 0 34 32"><path fill="#ff6b08" style="fill:var(--color2,#ff6b08)" d="m17.231 31.705-2.412-2.412C5.859 21.367.001 16.025.001 9.478.001 4.136 4.136.001 9.478.001c2.929 0 5.858 1.378 7.754 3.618 1.895-2.24 4.825-3.618 7.754-3.618 5.342 0 9.477 4.135 9.477 9.477 0 6.548-5.858 11.889-14.818 19.815l-2.412 2.412z"/></symbol><symbol id="icon-Vector-heart-single" viewBox="0 0 34 32"><path fill="#ff6b08" style="fill:var(--color2,#ff6b08)" d="m17.231 31.705-2.412-2.412C5.859 21.367.001 16.025.001 9.478.001 4.136 4.136.001 9.478.001c2.929 0 5.858 1.378 7.754 3.618 1.895-2.24 4.825-3.618 7.754-3.618 5.342 0 9.477 4.135 9.477 9.477 0 6.548-5.858 11.889-14.818 19.815l-2.412 2.412z"/></symbol><symbol id="icon-lupa-for-input" viewBox="0 0 32 32"><path stroke-width="2.667" stroke-linecap="round" stroke-linejoin="round" style="stroke:var(--color1,#fff)" d="M14.667 25.333c5.891 0 10.667-4.776 10.667-10.667S20.558 3.999 14.667 3.999 4 8.775 4 14.666s4.776 10.667 10.667 10.667zM28 28.001l-5.8-5.8"/></symbol><symbol id="icon-github" viewBox="0 0 32 32"><path d="M16 0C7.164 0 0 7.164 0 16c0 8.837 7.164 16 16 16s16-7.163 16-16c0-8.836-7.164-16-16-16zm4.482 28.189c-.092-1.252-.195-2.803-.201-3.431-.04-.482-.092-1.708-1.256-2.491 4.621-.387 6.82-2.941 6.978-6.316.132-1.922-.632-3.612-1.989-4.976a27.326 27.326 0 0 0-.138-3.948c-1.042-.3-3.472.983-4.151 1.532-1.432-.556-4.937-.751-7.067 0-1.51-1.062-3.229-1.718-4.166-1.535-.865 1.917-.309 3.729-.14 3.945-1.114 1.018-2.668 2.271-2.246 4.896.677 3.849 3.385 5.925 7.745 6.433-.93.19-1.087.884-1.165 1.185-2.928 1.208-3.765-.746-4.135-1.255-1.229-1.521-2.332-1.08-2.4-1.056-.066.024-.116.12-.109.166.062.328.731.661.764.688.907.676 1.243 1.897 1.45 2.245 1.301 2.139 4.325 1.252 4.354 1.27.002.187-.021 1.761-.039 2.986C7.057 27.021 3 21.991 3 16 3 8.82 8.82 3 16 3s13 5.82 13 13c0 5.603-3.55 10.362-8.518 12.189z"/></symbol><symbol id="icon-google" viewBox="0 0 32 32"><path d="M15.987 18.533v-4.96h12.48c.187.84.333 1.627.333 2.733 0 7.613-5.107 13.027-12.8 13.027C8.64 29.333 2.667 23.36 2.667 16S8.64 2.667 16 2.667c3.6 0 6.613 1.32 8.92 3.48l-3.787 3.68c-.96-.907-2.64-1.973-5.133-1.973-4.413 0-8.013 3.667-8.013 8.16s3.6 8.16 8.013 8.16c5.107 0 6.987-3.533 7.333-5.627h-7.347v-.013z"/></symbol><symbol id="icon-linkedin" viewBox="0 0 32 32"><path d="M31.992 32H32V20.262c0-5.741-1.235-10.163-7.947-10.163-3.227 0-5.392 1.77-6.277 3.45h-.093v-2.914h-6.365v21.363h6.627V21.42c0-2.786.528-5.48 3.978-5.48 3.398 0 3.45 3.179 3.45 5.658V32h6.619zM.528 10.635h6.635V32H.528V10.635zM3.843 0A3.843 3.843 0 0 0 0 3.843c0 2.12 1.722 3.878 3.843 3.878 2.12 0 3.842-1.757 3.842-3.878S5.965.002 3.844 0z"/></symbol></defs></svg>