<svg aria-hidden="true" style="position: absolute; width: 0; height: 0; overflow: hidden;" version="1.1"
    xmlns="http://www.w3.org/2000/svg"
    xmlns:xlink="http://www.w3.org/1999/xlink">
    <defs>

        <symbol id="icon-right" viewBox="0 0 32 32">
            <path d="M19.414 27.414l10-10c0.781-0.781 0.781-2.047 0-2.828l-10-10c-0.781-0.781-2.047-0.781-2.828 0s-0.781 2.047 0 2.828l6.586 6.586h-19.172c-1.105 0-2 0.895-2 2s0.895 2 2 2h19.172l-6.586 6.586c-0.39 0.39-0.586 0.902-0.586 1.414s0.195 1.024 0.586 1.414c0.781 0.781 2.047 0.781 2.828 0z">
            </path>
        </symbol>
        <symbol id="icon-left" viewBox="0 0 32 32">
            <path d="M12.586 27.414l-10-10c-0.781-0.781-0.781-2.047 0-2.828l10-10c0.781-0.781 2.047-0.781 2.828 0s0.781 2.047 0 2.828l-6.586 6.586h19.172c1.105 0 2 0.895 2 2s-0.895 2-2 2h-19.172l6.586 6.586c0.39 0.39 0.586 0.902 0.586 1.414s-0.195 1.024-0.586 1.414c-0.781 0.781-2.047 0.781-2.828 0z">
            </path>
        </symbol>
        <symbol id="icon-close-window" viewBox="0 0 32 32">

        <path stroke-linejoin="miter" stroke-linecap="butt" stroke-miterlimit="4" stroke-width="2.1333" d="M8.533 8.533l14.933 14.933"></path>
        <path stroke-linejoin="miter" stroke-linecap="butt" stroke-miterlimit="4" stroke-width="2.1333" d="M8.533 23.467l14.933-14.933"></path>
        </symbol>

         <symbol id="icon-close-window-orange" viewBox="0 0 32 32">
            <path stroke="#e5641f" stroke-width="2.1333" stroke-miterlimit="4" stroke-linecap="butt"
                stroke-linejoin="miter" d="M8.533 8.533l14.933 14.933"></path>
            <path stroke="#e5641f" stroke-width="2.1333" stroke-miterlimit="4" stroke-linecap="butt"
                stroke-linejoin="miter" d="M8.533 23.467l14.933-14.933"></path>

        </symbol>

        <symbol id="icon-film-from-header" viewBox="0 0 32 32">
            <path fill="none" stroke="#fff" stroke-width="2.6667" stroke-miterlimit="4" stroke-linecap="round" stroke-linejoin="round" style="stroke: var(--color1, #fff)" d="M26.427 3.606h-20.853c-1.605 0-2.907 1.239-2.907 2.768v19.856c0 1.529 1.301 2.768 2.907 2.768h20.853c1.605 0 2.907-1.239 2.907-2.768v-19.856c0-1.529-1.301-2.768-2.907-2.768z">
            </path>
            <path fill="none" stroke="#fff" stroke-width="2.6667" stroke-miterlimit="4" stroke-linecap="round" stroke-linejoin="round" style="stroke: var(--color1, #fff)" d="M9.333 3.606v25.391"></path>
            <path fill="none" stroke="#fff" stroke-width="2.6667" stroke-miterlimit="4" stroke-linecap="round" stroke-linejoin="round" style="stroke: var(--color1, #fff)" d="M22.667 3.606v25.391"></path>
            <path fill="none" stroke="#fff" stroke-width="2.6667" stroke-miterlimit="4" stroke-linecap="round" stroke-linejoin="round" style="stroke: var(--color1, #fff)" d="M2.667 16.301h26.667"></path>
            <path fill="none" stroke="#fff" stroke-width="2.6667" stroke-miterlimit="4" stroke-linecap="round" stroke-linejoin="round" style="stroke: var(--color1, #fff)" d="M2.667 9.954h6.667"></path>
            <path fill="none" stroke="#fff" stroke-width="2.6667" stroke-miterlimit="4" stroke-linecap="round" stroke-linejoin="round" style="stroke: var(--color1, #fff)" d="M2.667 22.649h6.667"></path>
            <path fill="none" stroke="#fff" stroke-width="2.6667" stroke-miterlimit="4" stroke-linecap="round" stroke-linejoin="round" style="stroke: var(--color1, #fff)" d="M22.667 22.649h6.667"></path>
            <path fill="none" stroke="#fff" stroke-width="2.6667" stroke-miterlimit="4" stroke-linecap="round" stroke-linejoin="round" style="stroke: var(--color1, #fff)" d="M22.667 9.954h6.667"></path>
        </symbol>
        <symbol id="icon-Group-heart" viewBox="0 0 34 32">
            <path fill="#ff6b08" style="fill: var(--color2, #ff6b08)" d="M17.231 31.705l-2.412-2.412c-8.96-7.926-14.818-13.268-14.818-19.815 0-5.342 4.135-9.477 9.477-9.477 2.929 0 5.858 1.378 7.754 3.618 1.895-2.24 4.825-3.618 7.754-3.618 5.342 0 9.477 4.135 9.477 9.477 0 6.548-5.858 11.889-14.818 19.815l-2.412 2.412z">
            </path>
        </symbol>
        <symbol id="icon-Vector-heart-single" viewBox="0 0 34 32">
            <path fill="#ff6b08" style="fill: var(--color2, #ff6b08)" d="M17.231 31.705l-2.412-2.412c-8.96-7.926-14.818-13.268-14.818-19.815 0-5.342 4.135-9.477 9.477-9.477 2.929 0 5.858 1.378 7.754 3.618 1.895-2.24 4.825-3.618 7.754-3.618 5.342 0 9.477 4.135 9.477 9.477 0 6.548-5.858 11.889-14.818 19.815l-2.412 2.412z">
            </path>
        </symbol>
        <symbol id="icon-lupa-for-input" viewBox="0 0 32 32">
            <path stroke-width="2.6667" stroke-miterlimit="4" stroke-linecap="round" stroke-linejoin="round" style="stroke: var(--color1, #fff)" d="M14.667 25.333c5.891 0 10.667-4.776 10.667-10.667s-4.776-10.667-10.667-10.667c-5.891 0-10.667 4.776-10.667 10.667s4.776 10.667 10.667 10.667z">
            </path>
            <path stroke-width="2.6667" stroke-miterlimit="4" stroke-linecap="round" stroke-linejoin="round" style="stroke: var(--color1, #fff)" d="M28 28.001l-5.8-5.8"></path>
        </symbol>

        <symbol id="icon-github" viewBox="0 0 32 32">
            <path d="M16 0c-8.836 0-16 7.164-16 16 0 8.837 7.164 16 16 16s16-7.163 16-16c-0-8.836-7.164-16-16-16zM20.482 28.189c-0.092-1.252-0.195-2.803-0.201-3.431-0.040-0.482-0.092-1.708-1.256-2.491 4.621-0.387 6.82-2.941 6.978-6.316 0.132-1.922-0.632-3.612-1.989-4.976 0.069-1.459-0.044-3.188-0.138-3.948-1.042-0.3-3.472 0.983-4.151 1.532-1.432-0.556-4.937-0.751-7.067 0-1.51-1.062-3.229-1.718-4.166-1.535-0.865 1.917-0.309 3.729-0.14 3.945-1.114 1.018-2.668 2.271-2.246 4.896 0.677 3.849 3.385 5.925 7.745 6.433-0.93 0.19-1.087 0.884-1.165 1.185-2.928 1.208-3.765-0.746-4.135-1.255-1.229-1.521-2.332-1.080-2.4-1.056-0.066 0.024-0.116 0.12-0.109 0.166 0.062 0.328 0.731 0.661 0.764 0.688 0.907 0.676 1.243 1.897 1.45 2.245 1.301 2.139 4.325 1.252 4.354 1.27 0.002 0.187-0.021 1.761-0.039 2.986-5.514-1.506-9.571-6.536-9.571-12.527 0-7.18 5.82-13 13-13s13 5.82 13 13c0 5.603-3.55 10.362-8.518 12.189z"></path>
        </symbol>
        <symbol id="icon-google" viewBox="0 0 32 32">
            <path d="M15.987 18.533v-4.96h12.48c0.187 0.84 0.333 1.627 0.333 2.733 0 7.613-5.107 13.027-12.8 13.027-7.36 0-13.333-5.973-13.333-13.333s5.973-13.333 13.333-13.333c3.6 0 6.613 1.32 8.92 3.48l-3.787 3.68c-0.96-0.907-2.64-1.973-5.133-1.973-4.413 0-8.013 3.667-8.013 8.16s3.6 8.16 8.013 8.16c5.107 0 6.987-3.533 7.333-5.627h-7.347v-0.013z"></path>
        </symbol>
        <symbol id="icon-linkedin" viewBox="0 0 32 32">
            <path d="M31.992 32h0.008v-11.738c0-5.741-1.235-10.163-7.947-10.163-3.227 0-5.392 1.77-6.277 3.45h-0.093v-2.914h-6.365v21.363h6.627v-10.578c0-2.786 0.528-5.48 3.978-5.48 3.398 0 3.45 3.179 3.45 5.658v10.402h6.619zM0.528 10.635h6.635v21.365h-6.635v-21.365zM3.843 0c-2.123 0-3.843 1.721-3.843 3.843v0c0 2.12 1.722 3.878 3.843 3.878 2.12 0 3.842-1.757 3.842-3.878s-1.72-3.841-3.841-3.843h-0z"></path>
        </symbol>

    </defs>
</svg>